<svg xmlns="http://www.w3.org/2000/svg" viewBox="0 0 100 100">
  <!-- Gear -->
  <path fill="#f59e0b" d="M50 15c-2.5 0-4.5 2-4.5 4.5v5.3c-3.4.6-6.5 1.8-9.3 3.5l-3.7-3.7c-1.8-1.8-4.7-1.8-6.4 0-1.8 1.8-1.8 4.7 0 6.4l3.7 3.7c-1.7 2.8-2.9 5.9-3.5 9.3h-5.3c-2.5 0-4.5 2-4.5 4.5s2 4.5 4.5 4.5h5.3c.6 3.4 1.8 6.5 3.5 9.3l-3.7 3.7c-1.8 1.8-1.8 4.7 0 6.4 1.8 1.8 4.7 1.8 6.4 0l3.7-3.7c2.8 1.7 5.9 2.9 9.3 3.5v5.3c0 2.5 2 4.5 4.5 4.5s4.5-2 4.5-4.5v-5.3c3.4-.6 6.5-1.8 9.3-3.5l3.7 3.7c1.8 1.8 4.7 1.8 6.4 0 1.8-1.8 1.8-4.7 0-6.4l-3.7-3.7c1.7-2.8 2.9-5.9 3.5-9.3h5.3c2.5 0 4.5-2 4.5-4.5s-2-4.5-4.5-4.5h-5.3c-.6-3.4-1.8-6.5-3.5-9.3l3.7-3.7c1.8-1.8 1.8-4.7 0-6.4-1.8-1.8-4.7-1.8-6.4 0l-3.7 3.7c-2.8-1.7-5.9-2.9-9.3-3.5v-5.3c0-2.5-2-4.5-4.5-4.5z"/>
  <!-- Inner circle (clock face) -->
  <circle cx="50" cy="50" r="18" fill="#0a0f1a"/>
  <!-- Clock hands -->
  <line x1="50" y1="50" x2="50" y2="38" stroke="#14b8a6" stroke-width="3" stroke-linecap="round"/>
  <line x1="50" y1="50" x2="58" y2="54" stroke="#14b8a6" stroke-width="2.5" stroke-linecap="round"/>
  <!-- Center dot -->
  <circle cx="50" cy="50" r="2.5" fill="#14b8a6"/>
</svg>
